# This file uses centimeters as units for non-parametric coordinates.

mtllib Pumpkin.mtl
v -0.475000 -0.475000 0.475000
v 0.475000 -0.475000 0.475000
v -0.475000 0.475000 0.475000
v 0.475000 0.475000 0.475000
v -0.475000 0.475000 -0.475000
v 0.475000 0.475000 -0.475000
v -0.475000 -0.475000 -0.475000
v 0.475000 -0.475000 -0.475000
vt 0.000000 0.000000
vt 1.000000 0.000000
vt 1.000000 1.000000
vt 0.000000 1.000000
vt 1.000000 1.000000
vt 0.000000 1.000000
vt 0.036813 0.971605
vt 0.267327 0.971605
vt 0.267327 0.741090
vt 0.036813 0.741090
vt 0.000000 0.000000
vt 1.000000 0.000000
vn 0.000000 0.000000 -1.000000
vn 0.000000 0.000000 -1.000000
vn 0.000000 0.000000 -1.000000
vn 0.000000 0.000000 -1.000000
vn 0.000000 -1.000000 0.000000
vn 0.000000 -1.000000 0.000000
vn 0.000000 -1.000000 0.000000
vn 0.000000 -1.000000 0.000000
vn 0.000000 0.000000 1.000000
vn 0.000000 0.000000 1.000000
vn 0.000000 0.000000 1.000000
vn 0.000000 0.000000 1.000000
vn 0.000000 1.000000 0.000000
vn 0.000000 1.000000 0.000000
vn 0.000000 1.000000 0.000000
vn 0.000000 1.000000 0.000000
vn -1.000000 0.000000 0.000000
vn -1.000000 0.000000 0.000000
vn -1.000000 0.000000 0.000000
vn -1.000000 0.000000 0.000000
vn 1.000000 0.000000 0.000000
vn 1.000000 0.000000 0.000000
vn 1.000000 0.000000 0.000000
vn 1.000000 0.000000 0.000000
g Interior
usemtl lambert2SG
f 1/1/1 3/4/2 4/3/3 2/2/4
f 3/4/5 5/6/6 6/5/7 4/3/8
f 5/7/9 7/10/10 8/9/11 6/8/12
f 7/11/13 1/1/14 2/2/15 8/12/16
f 2/2/17 4/3/18 6/5/19 8/12/20
f 7/11/21 5/6/22 3/4/23 1/1/24
v -0.508524 -0.508524 0.508524
v 0.508524 -0.508524 0.508524
v -0.508524 0.508524 0.508524
v 0.508524 0.508524 0.508524
v -0.508524 0.508524 -0.508524
v 0.508524 0.508524 -0.508524
v -0.508524 -0.508524 -0.508524
v 0.508524 -0.508524 -0.508524
vt 0.271055 0.332121
vt 0.507461 0.332121
vt 0.507461 0.640121
vt 0.271055 0.640121
vt 0.507461 0.948122
vt 0.271055 0.948122
vt 0.980273 0.640121
vt 0.743867 0.640121
vt 0.743867 0.332121
vt 0.980273 0.332121
vt 0.271055 0.024120
vt 0.507461 0.024120
vt 0.034649 0.332121
vt 0.034649 0.640121
vn 0.000000 0.000000 1.000000
vn 0.000000 0.000000 1.000000
vn 0.000000 0.000000 1.000000
vn 0.000000 0.000000 1.000000
vn 0.000000 1.000000 0.000000
vn 0.000000 1.000000 0.000000
vn 0.000000 1.000000 0.000000
vn 0.000000 1.000000 0.000000
vn 0.000000 0.000000 -1.000000
vn 0.000000 0.000000 -1.000000
vn 0.000000 0.000000 -1.000000
vn 0.000000 0.000000 -1.000000
vn 0.000000 -1.000000 0.000000
vn 0.000000 -1.000000 0.000000
vn 0.000000 -1.000000 0.000000
vn 0.000000 -1.000000 0.000000
vn 1.000000 0.000000 0.000000
vn 1.000000 0.000000 0.000000
vn 1.000000 0.000000 0.000000
vn 1.000000 0.000000 0.000000
vn -1.000000 0.000000 0.000000
vn -1.000000 0.000000 0.000000
vn -1.000000 0.000000 0.000000
vn -1.000000 0.000000 0.000000
g Exterior
usemtl lambert3SG
f 9/13/25 10/14/26 12/15/27 11/16/28
f 11/16/29 12/15/30 14/17/31 13/18/32
f 13/19/33 14/20/34 16/21/35 15/22/36
f 15/23/37 16/24/38 10/14/39 9/13/40
f 10/14/41 16/21/42 14/20/43 12/15/44
f 15/25/45 9/13/46 11/16/47 13/26/48
